<svg xmlns="http://www.w3.org/2000/svg" width="375" viewBox="0 0 375 375" height="375" version="1.0"><defs><clipPath id="a"><path d="M 276 26.652344 L 352.886719 26.652344 L 352.886719 103 L 276 103 Z M 276 26.652344"/></clipPath><clipPath id="b"><path d="M 276 275 L 352.886719 275 L 352.886719 351.402344 L 276 351.402344 Z M 276 275"/></clipPath><clipPath id="c"><path d="M 28.136719 26.652344 L 105 26.652344 L 105 103 L 28.136719 103 Z M 28.136719 26.652344"/></clipPath><clipPath id="d"><path d="M 28.136719 275 L 105 275 L 105 351.402344 L 28.136719 351.402344 Z M 28.136719 275"/></clipPath></defs><path fill="#33363A" d="M 95.019531 96.605469 C 95.019531 94.890625 96.410156 93.496094 98.128906 93.496094 L 115.792969 93.496094 C 117.511719 93.496094 118.902344 94.890625 118.902344 96.605469 L 118.902344 114.273438 C 118.902344 115.988281 117.511719 117.378906 115.792969 117.378906 L 98.128906 117.378906 C 96.410156 117.378906 95.019531 115.988281 95.019531 114.273438 Z M 71.140625 117.378906 L 71.140625 127.640625 C 71.140625 135.164062 77.238281 141.261719 84.757812 141.261719 L 129.167969 141.261719 C 136.6875 141.261719 142.785156 135.164062 142.785156 127.640625 L 142.785156 83.238281 C 142.785156 75.714844 136.683594 69.617188 129.160156 69.621094 L 84.742188 69.644531 C 77.21875 69.648438 71.128906 75.742188 71.128906 83.261719 L 71.128906 93.53125 L 71.140625 93.53125 L 71.140625 117.378906"/><path fill="#33363A" d="M 171.648438 117.378906 L 185.566406 117.378906 C 188.316406 117.378906 190.546875 115.148438 190.546875 112.398438 L 190.546875 98.476562 C 190.546875 95.726562 192.78125 93.496094 195.527344 93.496094 L 209.449219 93.496094 C 212.203125 93.496094 214.429688 91.265625 214.429688 88.515625 L 214.429688 74.59375 C 214.429688 71.847656 212.203125 69.613281 209.449219 69.613281 L 171.648438 69.613281 C 168.894531 69.613281 166.667969 71.847656 166.667969 74.59375 L 166.667969 112.398438 C 166.667969 115.148438 168.894531 117.378906 171.648438 117.378906"/><path fill="#33363A" d="M 88.285156 284.550781 L 77.867188 284.550781 C 74.152344 284.550781 71.140625 287.566406 71.140625 291.28125 L 71.140625 301.703125 C 71.140625 305.417969 74.152344 308.433594 77.867188 308.433594 L 88.285156 308.433594 C 92.003906 308.433594 95.019531 305.417969 95.019531 301.703125 L 95.019531 291.28125 C 95.019531 287.566406 92.003906 284.550781 88.285156 284.550781"/><path fill="#33363A" d="M 172.242188 165.144531 L 208.855469 165.144531 C 211.933594 165.144531 214.429688 162.644531 214.429688 159.566406 L 214.429688 122.957031 C 214.429688 119.875 211.933594 117.378906 208.855469 117.378906 L 196.125 117.378906 C 193.046875 117.378906 190.546875 119.875 190.546875 122.957031 L 190.546875 135.683594 C 190.546875 138.761719 188.050781 141.261719 184.96875 141.261719 L 172.242188 141.261719 C 169.164062 141.261719 166.667969 143.757812 166.667969 146.835938 L 166.667969 159.566406 C 166.667969 162.644531 169.164062 165.144531 172.242188 165.144531"/><path fill="#33363A" d="M 95.019531 171.875 C 95.019531 168.15625 92.003906 165.144531 88.285156 165.144531 L 77.867188 165.144531 C 74.152344 165.144531 71.140625 168.15625 71.140625 171.875 L 71.140625 182.292969 C 71.140625 186.007812 74.152344 189.023438 77.867188 189.023438 L 88.285156 189.023438 C 92.003906 189.023438 95.019531 186.007812 95.019531 182.292969 L 95.019531 171.875"/><path fill="#33363A" d="M 125.632812 165.144531 C 121.917969 165.144531 118.902344 168.15625 118.902344 171.875 L 118.902344 182.292969 C 118.902344 186.007812 121.917969 189.023438 125.632812 189.023438 L 136.054688 189.023438 C 139.769531 189.023438 142.785156 192.035156 142.785156 195.757812 L 142.785156 206.175781 C 142.785156 209.894531 145.796875 212.90625 149.515625 212.90625 L 159.933594 212.90625 C 163.652344 212.90625 166.667969 209.894531 166.667969 206.175781 L 166.667969 171.875 C 166.667969 168.15625 163.652344 165.144531 159.933594 165.144531 L 125.632812 165.144531"/><path fill="#33363A" d="M 245.042969 189.023438 L 255.460938 189.023438 C 259.179688 189.023438 262.195312 192.035156 262.195312 195.757812 L 262.195312 206.175781 C 262.195312 209.894531 265.207031 212.90625 268.925781 212.90625 L 303.226562 212.90625 C 306.945312 212.90625 309.957031 209.894531 309.957031 206.175781 L 309.957031 195.757812 C 309.957031 192.035156 306.945312 189.023438 303.226562 189.023438 L 292.808594 189.023438 C 289.089844 189.023438 286.078125 186.007812 286.078125 182.292969 L 286.078125 171.875 C 286.078125 168.15625 283.0625 165.144531 279.34375 165.144531 L 245.042969 165.144531 C 241.328125 165.144531 238.3125 168.15625 238.3125 171.875 L 238.3125 182.292969 C 238.3125 186.007812 241.328125 189.023438 245.042969 189.023438"/><path fill="#33363A" d="M 101.753906 212.90625 L 112.171875 212.90625 C 115.890625 212.90625 118.902344 209.894531 118.902344 206.175781 L 118.902344 195.757812 C 118.902344 192.035156 115.890625 189.023438 112.171875 189.023438 L 101.753906 189.023438 C 98.035156 189.023438 95.019531 192.035156 95.019531 195.757812 L 95.019531 206.175781 C 95.019531 209.894531 98.035156 212.90625 101.753906 212.90625"/><path fill="#33363A" d="M 238.3125 195.757812 C 238.3125 192.035156 235.300781 189.023438 231.582031 189.023438 L 197.28125 189.023438 C 193.558594 189.023438 190.546875 192.035156 190.546875 195.757812 L 190.546875 206.175781 C 190.546875 209.894531 193.558594 212.90625 197.28125 212.90625 L 231.582031 212.90625 C 235.300781 212.90625 238.3125 209.894531 238.3125 206.175781 L 238.3125 195.757812"/><path fill="#33363A" d="M 118.902344 243.519531 C 118.902344 239.800781 115.890625 236.785156 112.171875 236.785156 L 77.867188 236.785156 C 74.152344 236.785156 71.140625 239.800781 71.140625 243.519531 L 71.140625 253.9375 C 71.140625 257.65625 74.152344 260.671875 77.867188 260.671875 L 112.171875 260.671875 C 115.890625 260.671875 118.902344 257.65625 118.902344 253.9375 L 118.902344 243.519531"/><path fill="#33363A" d="M 159.933594 236.785156 L 149.515625 236.785156 C 145.796875 236.785156 142.785156 239.800781 142.785156 243.519531 L 142.785156 253.9375 C 142.785156 257.65625 145.796875 260.671875 149.515625 260.671875 L 159.933594 260.671875 C 163.652344 260.671875 166.667969 257.65625 166.667969 253.9375 L 166.667969 243.519531 C 166.667969 239.800781 163.652344 236.785156 159.933594 236.785156"/><path fill="#33363A" d="M 207.882812 236.785156 L 197.464844 236.785156 C 193.746094 236.785156 190.734375 239.800781 190.734375 243.519531 L 190.734375 253.9375 C 190.734375 257.65625 193.746094 260.671875 197.464844 260.671875 L 207.882812 260.671875 C 211.597656 260.671875 214.613281 257.65625 214.613281 253.9375 L 214.613281 243.519531 C 214.613281 239.800781 211.597656 236.785156 207.882812 236.785156"/><path fill="#33363A" d="M 142.785156 267.402344 C 142.785156 263.683594 139.769531 260.671875 136.054688 260.671875 L 125.632812 260.671875 C 121.917969 260.671875 118.902344 263.683594 118.902344 267.402344 L 118.902344 277.820312 C 118.902344 281.535156 121.917969 284.550781 125.632812 284.550781 L 136.054688 284.550781 C 139.769531 284.550781 142.785156 281.535156 142.785156 277.820312 L 142.785156 267.402344"/><path fill="#33363A" d="M 207.695312 284.550781 L 197.277344 284.550781 C 193.558594 284.550781 190.546875 281.535156 190.546875 277.820312 L 190.546875 267.402344 C 190.546875 263.683594 187.535156 260.671875 183.816406 260.671875 L 173.398438 260.671875 C 169.679688 260.671875 166.667969 263.683594 166.667969 267.402344 L 166.667969 277.820312 C 166.667969 281.535156 163.652344 284.550781 159.933594 284.550781 L 149.515625 284.550781 C 145.796875 284.550781 142.785156 287.566406 142.785156 291.28125 L 142.785156 301.703125 C 142.785156 305.417969 145.796875 308.433594 149.515625 308.433594 L 207.695312 308.433594 C 211.417969 308.433594 214.429688 305.417969 214.429688 301.703125 L 214.429688 291.28125 C 214.429688 287.566406 211.417969 284.550781 207.695312 284.550781"/><path fill="#33363A" d="M 286.085938 281.441406 C 286.085938 283.160156 284.695312 284.550781 282.980469 284.550781 L 265.3125 284.550781 C 263.597656 284.550781 262.207031 283.160156 262.207031 281.441406 L 262.207031 263.777344 C 262.207031 262.058594 263.597656 260.667969 265.3125 260.667969 L 282.980469 260.667969 C 284.695312 260.667969 286.085938 262.058594 286.085938 263.777344 Z M 296.34375 236.789062 L 251.925781 236.816406 C 244.40625 236.816406 238.3125 242.914062 238.3125 250.429688 L 238.3125 260.699219 L 238.324219 260.699219 L 238.324219 294.8125 C 238.324219 302.332031 244.421875 308.429688 251.941406 308.429688 L 296.347656 308.429688 C 303.875 308.429688 309.96875 302.332031 309.96875 294.8125 L 309.96875 250.410156 C 309.96875 242.886719 303.867188 236.785156 296.34375 236.789062"/><path fill="#33363A" d="M 286.085938 114.269531 C 286.085938 115.984375 284.695312 117.375 282.980469 117.375 L 265.3125 117.375 C 263.597656 117.375 262.207031 115.984375 262.207031 114.269531 L 262.207031 96.601562 C 262.207031 94.886719 263.597656 93.492188 265.3125 93.492188 L 282.980469 93.492188 C 284.695312 93.492188 286.085938 94.886719 286.085938 96.601562 Z M 296.34375 69.617188 L 251.925781 69.640625 C 244.40625 69.644531 238.3125 75.738281 238.3125 83.257812 L 238.3125 93.527344 L 238.324219 93.527344 L 238.324219 127.640625 C 238.324219 135.160156 244.421875 141.253906 251.941406 141.253906 L 296.347656 141.253906 C 303.875 141.253906 309.96875 135.160156 309.96875 127.640625 L 309.96875 83.238281 C 309.96875 75.714844 303.867188 69.613281 296.34375 69.617188"/><g clip-path="url(#a)"><path fill="#F7323C" d="M 343.570312 102.800781 C 338.390625 102.800781 334.195312 98.605469 334.195312 93.429688 L 334.195312 51.894531 C 334.195312 48.304688 331.269531 45.378906 327.675781 45.378906 L 286.140625 45.378906 C 280.964844 45.378906 276.769531 41.183594 276.769531 36.003906 C 276.769531 30.832031 280.964844 26.632812 286.140625 26.632812 L 327.675781 26.632812 C 341.605469 26.632812 352.941406 37.964844 352.941406 51.894531 L 352.941406 93.429688 C 352.941406 98.605469 348.746094 102.800781 343.570312 102.800781"/></g><g clip-path="url(#b)"><path fill="#F7323C" d="M 327.675781 351.417969 L 286.140625 351.417969 C 280.964844 351.417969 276.769531 347.222656 276.769531 342.042969 C 276.769531 336.867188 280.964844 332.671875 286.140625 332.671875 L 327.675781 332.671875 C 331.269531 332.671875 334.195312 329.746094 334.195312 326.152344 L 334.195312 284.617188 C 334.195312 279.441406 338.390625 275.246094 343.570312 275.246094 C 348.746094 275.246094 352.941406 279.441406 352.941406 284.617188 L 352.941406 326.152344 C 352.941406 340.082031 341.605469 351.417969 327.675781 351.417969"/></g><g clip-path="url(#c)"><path fill="#F7323C" d="M 37.527344 102.800781 C 32.355469 102.800781 28.15625 98.605469 28.15625 93.429688 L 28.15625 51.894531 C 28.15625 37.964844 39.492188 26.632812 53.421875 26.632812 L 94.957031 26.632812 C 100.132812 26.632812 104.328125 30.832031 104.328125 36.003906 C 104.328125 41.183594 100.132812 45.378906 94.957031 45.378906 L 53.421875 45.378906 C 49.828125 45.378906 46.902344 48.304688 46.902344 51.894531 L 46.902344 93.429688 C 46.902344 98.605469 42.707031 102.800781 37.527344 102.800781"/></g><g clip-path="url(#d)"><path fill="#F7323C" d="M 94.957031 351.417969 L 53.421875 351.417969 C 39.492188 351.417969 28.15625 340.082031 28.15625 326.152344 L 28.15625 284.617188 C 28.15625 279.441406 32.355469 275.246094 37.527344 275.246094 C 42.707031 275.246094 46.902344 279.441406 46.902344 284.617188 L 46.902344 326.152344 C 46.902344 329.746094 49.828125 332.671875 53.421875 332.671875 L 94.957031 332.671875 C 100.132812 332.671875 104.328125 336.867188 104.328125 342.042969 C 104.328125 347.222656 100.132812 351.417969 94.957031 351.417969"/></g></svg>